<?xml version="1.0" encoding="UTF-8"?>
<svg version="1.1" xmlns="http://www.w3.org/2000/svg" width="818" height="305">
<path d="M0 0 C30.83753806 -0.15970791 61.67498149 -0.28357761 92.51283437 -0.35745731 C96.15398336 -0.36621219 99.79513153 -0.37527245 103.4362793 -0.38452148 C104.16116251 -0.38635766 104.88604573 -0.38819383 105.6328951 -0.39008565 C117.36827247 -0.42054022 129.10340966 -0.47572946 140.83864457 -0.54006957 C152.88120554 -0.6055437 164.92364078 -0.64441423 176.96637243 -0.65861946 C183.73023533 -0.66736036 190.49359753 -0.68837252 197.25728035 -0.7401104 C203.62262174 -0.78759587 209.98719377 -0.80228602 216.35269547 -0.79175377 C218.68961835 -0.79368076 221.02656675 -0.80762141 223.36333656 -0.83443832 C226.5541701 -0.8692627 229.7420981 -0.86089911 232.93299866 -0.84178162 C233.8581092 -0.86217151 234.78321975 -0.8825614 235.73636395 -0.90356916 C240.73437694 -0.82260821 243.37761759 -0.17914747 247.00809383 3.3768301 C251.6365881 8.6360546 253.34889605 12.84159195 253.26339722 19.78756714 C252.68063773 26.89499118 250.88864886 33.8431415 249.31640625 40.78515625 C248.93684281 42.49464655 248.55810773 44.20432096 248.18016052 45.91416931 C247.39044822 49.47671963 246.5938904 53.03764029 245.79174805 56.59741211 C244.7618341 61.16855104 243.74455048 65.7423824 242.73170567 70.31733036 C241.95173598 73.83778425 241.167621 77.35730318 240.38197136 80.87649345 C240.00526112 82.56410945 239.62928953 84.2518905 239.25406075 85.9398365 C238.7312713 88.28638355 238.20348886 90.63174716 237.67407227 92.97680664 C237.44102135 94.02785835 237.44102135 94.02785835 237.20326233 95.10014343 C236.11466676 99.88533324 236.11466676 99.88533324 235 101 C232.35261911 101.09511266 229.73140999 101.12555635 227.08374023 101.11352539 C226.25454071 101.11367142 225.42534119 101.11381744 224.5710144 101.1139679 C221.81684802 101.11326851 219.06274839 101.10547493 216.30859375 101.09765625 C214.40430234 101.09579216 212.50001045 101.09436822 210.59571838 101.09336853 C205.57332037 101.08954263 200.55095108 101.07971173 195.52856445 101.06866455 C190.4077188 101.05845198 185.28686852 101.05387124 180.16601562 101.04882812 C170.11066443 101.03808953 160.0553346 101.02101224 150 101 C151.25125384 97.24623848 152.5652404 96.75926711 156 95 C156.66 95 157.32 95 158 95 C158.33 92.03 158.66 89.06 159 86 C160.98 77.09 162.96 68.18 165 59 C145.86 59 126.72 59 107 59 C104.03 72.86 101.06 86.72 98 101 C71.93 101 45.86 101 19 101 C19.64210606 94.57893942 20.34149287 88.67696211 21.77734375 82.46484375 C21.94875381 81.70128067 22.12016388 80.93771759 22.29676819 80.15101624 C22.83813687 77.74521853 23.38760949 75.3413625 23.9375 72.9375 C24.30198062 71.32499363 24.6659167 69.71236408 25.02929688 68.09960938 C27.76725569 55.96914534 27.76725569 55.96914534 28.69970703 52.08642578 C30.71059592 44.94242893 30.71059592 44.94242893 28.87304688 38.11035156 C27.24098709 35.87706201 25.51969202 33.75083621 23.75 31.625 C22.46486211 30.0296791 21.1810335 28.43330272 19.8984375 26.8359375 C19.24713867 26.0325293 18.59583984 25.22912109 17.92480469 24.40136719 C14.99370247 20.74455321 12.17858624 17.00496133 9.375 13.25 C8.8912793 12.60756348 8.40755859 11.96512695 7.90917969 11.30322266 C5.14459249 7.61223573 2.55367995 3.84184387 0 0 Z " fill="#D1AF2F" transform="translate(565,0)"/>
<path d="M0 0 C1.08864349 0.00539291 1.08864349 0.00539291 2.19927979 0.01089478 C2.96020432 0.01074875 3.72112885 0.01060272 4.50511169 0.01045227 C7.03202113 0.01115155 9.55885776 0.01894462 12.08575439 0.02676392 C13.83310404 0.02862804 15.58045421 0.03005197 17.32780457 0.03105164 C21.93591749 0.03487724 26.54399909 0.04470788 31.15209961 0.05575562 C35.85068335 0.06596883 40.54927214 0.07054906 45.24786377 0.07559204 C54.47378902 0.08633011 63.69969098 0.10340704 72.92559814 0.12442017 C72.95168914 4.10394138 72.97487054 7.78859527 72.08575439 11.67520142 C71.90979736 12.45572876 71.73384033 13.2362561 71.55255127 14.04043579 C71.36628174 14.83127563 71.18001221 15.62211548 70.98809814 16.43692017 C70.71449463 17.65218384 70.71449463 17.65218384 70.43536377 18.89199829 C69.07815191 24.81931264 69.07815191 24.81931264 67.92559814 27.12442017 C87.39559814 27.12442017 106.86559814 27.12442017 126.92559814 27.12442017 C127.58559814 23.16442017 128.24559814 19.20442017 128.92559814 15.12442017 C130.24559814 10.17442017 131.56559814 5.22442017 132.92559814 0.12442017 C158.66559814 0.12442017 184.40559814 0.12442017 210.92559814 0.12442017 C209.79951575 12.51132649 209.79951575 12.51132649 208.72979736 17.55459595 C208.49219696 18.68591949 208.25459656 19.81724304 208.00979614 20.98284912 C207.75255768 22.16652069 207.49531921 23.35019226 207.23028564 24.56973267 C206.82448776 26.44542435 206.82448776 26.44542435 206.41049194 28.35900879 C205.83928371 30.98728164 205.26152936 33.61402938 204.68048096 36.24014282 C203.94355212 39.57856586 203.23546889 42.92243125 202.53367424 46.26838875 C201.84926894 49.49848641 201.13113748 52.72090659 200.41778564 55.94473267 C200.17269257 57.1324527 199.92759949 58.32017273 199.67507935 59.54388428 C197.45511332 69.2802364 193.25279607 76.52533598 184.73809814 82.06192017 C183.91954346 82.6071936 183.10098877 83.15246704 182.25762939 83.71426392 C181.48805908 84.17961548 180.71848877 84.64496704 179.92559814 85.12442017 C179.38402195 85.47854414 178.84244576 85.83266811 178.28445816 86.19752312 C174.84960458 87.54722409 171.48741512 87.39255979 167.85180664 87.3649292 C167.03167847 87.36663805 166.2115503 87.3683469 165.36656976 87.37010753 C162.6149985 87.3734051 159.86367042 87.36239433 157.11212158 87.35147095 C155.14111334 87.35090689 153.17010468 87.35122328 151.19909668 87.35235596 C145.84409574 87.35293069 140.48918407 87.34115686 135.13420391 87.32720804 C129.53946572 87.31472077 123.94472557 87.31353176 118.34997559 87.31115723 C107.7536316 87.30493657 97.1573288 87.28851781 86.56100297 87.26845825 C74.4982676 87.24611748 62.43553027 87.2351104 50.37277937 87.22506738 C25.55702945 87.2041521 0.7413161 87.16896473 -24.07440186 87.12442017 C-22.98267355 80.37727824 -21.83377599 73.66690659 -20.39447021 66.98501587 C-20.23972733 66.26310562 -20.08498444 65.54119537 -19.92555237 64.79740906 C-19.42463183 62.46438263 -18.91965179 60.13225987 -18.41424561 57.80020142 C-18.06063717 56.1606795 -17.70716983 54.52112715 -17.35383606 52.88154602 C-16.61862261 49.47324087 -15.88130105 46.06540035 -15.14251709 42.65786743 C-14.19422753 38.2828905 -13.25198069 33.90663639 -12.31133175 29.53001118 C-11.58564506 26.15726653 -10.85649966 22.7852769 -10.12631416 19.41350365 C-9.77708639 17.79854312 -9.42902362 16.18333021 -9.08213615 14.56786537 C-8.5999734 12.32461397 -8.11309823 10.08243756 -7.62493896 7.84048462 C-7.3489537 6.56429764 -7.07296844 5.28811066 -6.78862 3.97325134 C-5.64340483 -0.59471534 -4.45512586 0.009312 0 0 Z " fill="#D2AE30" transform="translate(563.0744018554688,217.87557983398438)"/>
<path d="M0 0 C43.23 0 86.46 0 131 0 C131.0309375 17.20125 131.0309375 17.20125 131.0625 34.75 C131.071604 38.30620117 131.08070801 41.86240234 131.09008789 45.52636719 C131.09460449 50.03369141 131.09460449 50.03369141 131.09544373 52.17559814 C131.09693135 53.6018709 131.1003404 55.02814282 131.10557556 56.45440674 C131.15722608 71.33432904 130.53191746 86.10631122 130 101 C103.27 101 76.54 101 49 101 C48.67 94.73 48.34 88.46 48 82 C47.50628906 83.28777344 47.01257813 84.57554688 46.50390625 85.90234375 C45.85691016 87.58078288 45.20976716 89.25916539 44.5625 90.9375 C44.23701172 91.78763672 43.91152344 92.63777344 43.57617188 93.51367188 C43.26357422 94.32255859 42.95097656 95.13144531 42.62890625 95.96484375 C42.34088135 96.7137085 42.05285645 97.46257324 41.75610352 98.23413086 C41 100 41 100 40 101 C37.44410112 101.09506052 34.91532028 101.12556761 32.35913086 101.11352539 C31.15922264 101.11374443 31.15922264 101.11374443 29.93507385 101.1139679 C27.27830335 101.11326855 24.62160207 101.10547518 21.96484375 101.09765625 C20.12781309 101.09579215 18.29078194 101.09436821 16.45375061 101.09336853 C11.60890338 101.08954275 6.76408592 101.07971196 1.91925049 101.06866455 C-3.02062578 101.05845172 -7.96050685 101.05387119 -12.90039062 101.04882812 C-22.60027353 101.03808974 -32.30013429 101.0210126 -42 101 C-40.35110397 95.90354506 -38.63552873 90.89988707 -36.50390625 85.98046875 C-36.0342041 84.89096924 -35.56450195 83.80146973 -35.08056641 82.67895508 C-34.57960449 81.5267749 -34.07864258 80.37459473 -33.5625 79.1875 C-33.02743177 77.9489847 -32.49277246 76.71029265 -31.95849609 75.47143555 C-30.85269295 72.90831363 -29.74516538 70.34594816 -28.63623047 67.78417969 C-26.11890434 61.96612027 -23.62176622 56.13940571 -21.125 50.3125 C-20.64385742 49.19004883 -20.16271484 48.06759766 -19.66699219 46.91113281 C-15.85201237 38.00451655 -12.0518751 29.09161893 -8.26287842 20.17391968 C-7.63292507 18.69152062 -7.002599 17.20927989 -6.37188721 15.72720337 C-5.49283557 13.66108364 -4.61533269 11.5943132 -3.73828125 9.52734375 C-3.23337158 8.33874756 -2.72846191 7.15015137 -2.20825195 5.92553711 C-1.40361737 3.97727762 -0.66656972 1.99970915 0 0 Z " fill="#D1AF2F" transform="translate(129,0)"/>
<path d="M0 0 C39.27 0 78.54 0 119 0 C121.5575 12.4575 124.115 24.915 126.75 37.75 C127.54889648 41.64006836 128.34779297 45.53013672 129.17089844 49.53808594 C130.16845703 54.39892578 130.16845703 54.39892578 130.63970947 56.69586182 C130.9593495 58.25335406 131.2791811 59.81080699 131.59918213 61.3682251 C132.56967745 66.09195641 133.53681641 70.81635141 134.49894714 75.54179382 C134.85093558 77.26867778 135.20394108 78.99535458 135.55769348 80.72187805 C136.1224451 83.48099018 136.68321737 86.24088576 137.24316406 89.00097656 C137.41892849 89.85630856 137.59469292 90.71164055 137.77578354 91.59289169 C138.01635168 92.78468222 138.01635168 92.78468222 138.26177979 94.00054932 C138.40459507 94.70169987 138.54741035 95.40285042 138.69455338 96.12524796 C139 98 139 98 139 101 C98.74 101 58.48 101 17 101 C18.12493398 90.87559416 18.12493398 90.87559416 18.90795898 87.37329102 C19.16844276 86.19144981 19.16844276 86.19144981 19.43418884 84.98573303 C19.61961746 84.16673019 19.80504608 83.34772736 19.99609375 82.50390625 C20.18969986 81.63031967 20.38330597 80.75673309 20.58277893 79.85667419 C21.19657889 77.09093871 21.81676128 74.32668555 22.4375 71.5625 C23.0533701 68.80161123 23.66788297 66.04042575 24.2815094 63.27903748 C24.66170832 61.57007583 25.04338273 59.86144146 25.42686462 58.1532135 C25.77992168 56.57362176 26.12878604 54.99308618 26.47314453 53.41157532 C26.84700069 51.70032366 27.23302451 49.99170996 27.62744141 48.28507996 C27.82378174 47.39597427 28.02012207 46.50686859 28.22241211 45.59082031 C28.40541367 44.78533752 28.58841522 43.97985474 28.77696228 43.14996338 C29.21002505 40.76357568 29.21002505 40.76357568 27.5703125 37.91796875 C26.76335937 37.01691406 25.95640625 36.11585937 25.125 35.1875 C24.19652981 34.09994613 23.27096725 33.00990607 22.34765625 31.91796875 C21.82316895 31.31388184 21.29868164 30.70979492 20.75830078 30.08740234 C17.19424181 25.85625763 13.90377974 21.40744416 10.5625 17 C9.86463379 16.09145264 9.16676758 15.18290527 8.44775391 14.24682617 C7.78565918 13.38162354 7.12356445 12.5164209 6.44140625 11.625 C5.85045166 10.85414062 5.25949707 10.08328125 4.65063477 9.2890625 C0 2.83966869 0 2.83966869 0 0 Z " fill="#212121" transform="translate(270,0)"/>
<path d="M0 0 C0.95985809 -0.00253784 1.91971619 -0.00507568 2.90866089 -0.00769043 C20.90169077 0.09463637 20.90169077 0.09463637 27.06640625 5.30859375 C30.22856227 8.96963653 32.42934388 13.01067233 34.41601562 17.40527344 C35.97884724 20.69566758 38.02851365 23.22642424 40.3125 26.0625 C40.99183594 27.01511719 41.67117188 27.96773437 42.37109375 28.94921875 C44.4551933 31.78296895 44.4551933 31.78296895 47.22265625 34.20703125 C50.90429538 37.91035897 53.48976951 40.83148709 53.50878906 46.14111328 C52.77678396 52.53418586 51.11093603 58.71248332 49.46289062 64.92041016 C48.40804387 69.04725736 47.49132907 73.18899017 46.609375 77.35546875 C46.45460693 78.08474579 46.29983887 78.81402283 46.14038086 79.56539917 C45.83031989 81.0282712 45.52058474 82.49121232 45.21118164 83.95422363 C44.47281676 87.42969812 43.71763533 90.90128591 42.953125 94.37109375 C42.56882324 96.12764282 42.56882324 96.12764282 42.17675781 97.91967773 C41.5 100.6875 41.5 100.6875 40.5 102.6875 C-2.07 102.6875 -44.64 102.6875 -88.5 102.6875 C-87.62808452 99.1998381 -87.07130025 97.7511818 -85.12109375 94.94921875 C-84.62053467 94.22379883 -84.11997559 93.49837891 -83.60424805 92.75097656 C-83.05422119 91.9669043 -82.50419434 91.18283203 -81.9375 90.375 C-81.36104736 89.54323242 -80.78459473 88.71146484 -80.19067383 87.85449219 C-78.29931418 85.12827162 -76.39967917 82.40792822 -74.5 79.6875 C-73.21297298 77.83503039 -71.92651846 75.9821629 -70.640625 74.12890625 C-67.28190679 69.29116547 -63.91611708 64.45839049 -60.54833984 59.62695312 C-56.53581762 53.86881635 -52.52974885 48.10618812 -48.52270508 42.34423828 C-45.06727361 37.37607207 -41.60961805 32.4094756 -38.1484375 27.4453125 C-37.43300781 26.41857422 -36.71757812 25.39183594 -35.98046875 24.33398438 C-34.62183133 22.38425145 -33.26250665 20.43499716 -31.90234375 18.48632812 C-30.97228516 17.15118164 -30.97228516 17.15118164 -30.0234375 15.7890625 C-29.40758789 14.93771729 -28.79173828 14.08637207 -28.15722656 13.20922852 C-26.43393177 10.76064272 -26.43393177 10.76064272 -25.42871094 8.08569336 C-20.95479677 -1.83082608 -9.38072447 -0.07479016 0 0 Z " fill="#212121" transform="translate(519.5,-1.6875)"/>
<path d="M0 0 C17.71492467 -0.02332832 35.42984537 -0.04097884 53.14478207 -0.05181217 C61.36955719 -0.05697527 69.59432279 -0.06401823 77.8190918 -0.07543945 C84.98520446 -0.08538586 92.15131023 -0.09185332 99.3174296 -0.09408849 C103.11416989 -0.09539568 106.91089045 -0.09848198 110.70762444 -0.10573006 C114.27718902 -0.1124896 117.84672563 -0.1146171 121.41629601 -0.11310768 C123.35914846 -0.11351636 125.30199784 -0.1189119 127.24484253 -0.12442017 C128.96339195 -0.12235817 128.96339195 -0.12235817 130.71665955 -0.12025452 C131.71864852 -0.12117631 132.72063749 -0.1220981 133.75298977 -0.12304783 C136 0 136 0 137 1 C137.10239941 3.58838662 137.13944905 6.14933721 137.1328125 8.73828125 C137.13413177 9.55069778 137.13545105 10.36311432 137.1368103 11.20014954 C137.13875144 13.90430312 137.1323227 16.60835661 137.125 19.3125 C137.12367065 20.69402252 137.12367065 20.69402252 137.12231445 22.10345459 C137.09804216 43.74360153 136.56567467 65.36861081 136 87 C124.93465142 87.02312283 113.86930855 87.04091478 102.80394077 87.05181217 C97.66640434 87.05704113 92.52888437 87.06413901 87.39135742 87.07543945 C82.4376859 87.08626787 77.48403026 87.09227674 72.53034782 87.09487724 C70.63602384 87.09673157 68.74170076 87.10035234 66.8473835 87.10573006 C64.20365614 87.11293989 61.55999529 87.11399097 58.91625977 87.11352539 C58.12504227 87.11712067 57.33382477 87.12071594 56.51863098 87.12442017 C51.11405216 87.11405216 51.11405216 87.11405216 50 86 C49.9638551 84.05498802 49.98734364 82.10882264 50.03515625 80.1640625 C50.93188859 64.55442334 50.93188859 64.55442334 44.375 51.25 C42.61971033 49.78850349 40.83020424 48.36651613 39 47 C37.77512209 45.6795464 36.58388331 44.32664683 35.4375 42.9375 C32.82298058 39.92926472 30.17048344 36.95869751 27.5 34 C24.23609152 30.38323655 21.01209051 26.73610392 17.8125 23.0625 C15.72788836 20.69035571 13.61571356 18.34443935 11.5 16 C10.74847656 15.16339844 9.99695313 14.32679688 9.22265625 13.46484375 C7.78078195 11.86585837 6.33070661 10.27421579 4.87109375 8.69140625 C4.23300781 7.98886719 3.59492187 7.28632813 2.9375 6.5625 C2.36902344 5.94503906 1.80054687 5.32757813 1.21484375 4.69140625 C0 3 0 3 0 0 Z " fill="#D1AF30" transform="translate(121,218)"/>
<path d="M0 0 C1.22895493 -0.03542908 2.45790985 -0.07085815 3.72410583 -0.10736084 C8.63842129 -0.2213208 13.55325188 -0.30384901 18.46851254 -0.36397934 C22.1959221 -0.41002396 25.92015959 -0.4770672 29.64599609 -0.59667969 C33.25258552 -0.71203522 36.85633912 -0.7719729 40.46466255 -0.79450226 C41.83278959 -0.81216685 43.20082106 -0.84875329 44.56788445 -0.90550995 C50.63854438 -1.14545352 55.35111857 -1.20985064 60.25784302 2.63659668 C62.80958119 5.41164943 65.0573161 8.23283819 67.26196289 11.28808594 C68.01326477 12.16070572 68.76456665 13.0333255 69.53863525 13.93238831 C71.26196289 16.28808594 71.26196289 16.28808594 71.16503906 19.72241211 C70.30085642 23.13452009 69.25192574 26.13064326 67.81274414 29.33886719 C59.25337264 48.53292222 51.27235136 67.83428537 43.26196289 87.28808594 C14.88196289 87.28808594 -13.49803711 87.28808594 -42.73803711 87.28808594 C-39.36388745 77.16563696 -39.36388745 77.16563696 -37.24194336 72.26855469 C-36.77183838 71.17808838 -36.3017334 70.08762207 -35.81738281 68.96411133 C-35.31682373 67.81289795 -34.81626465 66.66168457 -34.30053711 65.47558594 C-33.76913937 64.24585612 -33.2381416 63.01595339 -32.70751953 61.78588867 C-31.60529404 59.23159256 -30.5013631 56.67804381 -29.39624023 54.125 C-26.76440107 48.04065305 -24.15935003 41.94483355 -21.55053711 35.85058594 C-20.56099808 33.54327527 -19.57141552 31.23598327 -18.58178711 28.92871094 C-16.72101284 24.58774705 -14.8670329 20.24398575 -13.01928711 15.89746094 C-12.6005835 14.91447021 -12.18187988 13.93147949 -11.75048828 12.91870117 C-10.97000977 11.08572793 -10.1914235 9.25194743 -9.41503906 7.41723633 C-8.90396606 6.21828735 -8.90396606 6.21828735 -8.38256836 4.99511719 C-8.08713135 4.29878174 -7.79169434 3.60244629 -7.48730469 2.88500977 C-5.84682755 -0.6113607 -3.65540792 0.10412424 0 0 Z " fill="#D1AF2F" transform="translate(42.738037109375,217.7119140625)"/>
<path d="M0 0 C25.74 0 51.48 0 78 0 C77.34848176 5.86366415 76.62123516 11.36669997 75.34179688 17.07421875 C75.09527122 18.20031807 75.09527122 18.20031807 74.84376526 19.34916687 C74.30673216 21.79632605 73.7629662 24.24192911 73.21875 26.6875 C72.84112675 28.39853322 72.46381236 30.10963462 72.08679199 31.82080078 C71.29962691 35.38852874 70.50919069 38.955511 69.71630859 42.52197266 C68.69833558 47.10187919 67.68795971 51.6834222 66.67989349 56.26551819 C65.90373045 59.79015003 65.12395829 63.31397549 64.34303284 66.83755493 C63.9687969 68.5278934 63.59561602 70.21846581 63.22349548 71.90927124 C62.70535518 74.26064881 62.18245909 76.61091705 61.65820312 78.9609375 C61.50440689 79.66320969 61.35061066 80.36548187 61.19215393 81.08903503 C60.11432736 85.88567264 60.11432736 85.88567264 59 87 C56.56603981 87.09498646 54.16057048 87.12558417 51.72631836 87.11352539 C50.58493156 87.11374443 50.58493156 87.11374443 49.42048645 87.1139679 C46.89357702 87.11326862 44.36674038 87.10547555 41.83984375 87.09765625 C40.0924941 87.09579212 38.34514393 87.0943682 36.59779358 87.09336853 C31.98968066 87.08954293 27.38159905 87.07971229 22.77349854 87.06866455 C18.07491479 87.05845134 13.37632601 87.0538711 8.67773438 87.04882812 C-0.54819087 87.03809005 -9.77409284 87.02101313 -19 87 C-18.31034597 82.04594087 -17.47137757 77.16135151 -16.43359375 72.26953125 C-16.27904221 71.53296799 -16.12449066 70.79640472 -15.96525574 70.03752136 C-15.45870587 67.62860198 -14.94841173 65.22049779 -14.4375 62.8125 C-14.26281189 61.9862915 -14.08812378 61.16008301 -13.90814209 60.30883789 C-11.37108017 48.31461623 -8.788981 36.33027162 -6.14578247 24.35897827 C-5.80081445 22.7963833 -5.45678748 21.23358025 -5.11373901 19.67056274 C-4.63396375 17.48792729 -4.14974397 15.30632782 -3.6640625 13.125 C-3.39029785 11.89007813 -3.1165332 10.65515625 -2.83447266 9.3828125 C-2.05197546 6.21069983 -1.03317959 3.09953877 0 0 Z " fill="#212121" transform="translate(456,218)"/>
<path d="M0 0 C23.76 0 47.52 0 72 0 C69.74949205 13.5030477 69.74949205 13.5030477 68.32006836 20.03173828 C68.16532547 20.74228867 68.01058258 21.45283905 67.85115051 22.18492126 C67.35034414 24.48071135 66.84526584 26.77553456 66.33984375 29.0703125 C65.98618898 30.68500793 65.63272252 32.29974462 65.2794342 33.91452026 C64.5442587 37.27156561 63.80697486 40.62813864 63.06811523 43.984375 C62.12044123 48.28986829 61.17793212 52.59647327 60.23692989 56.90342903 C59.51057212 60.22546239 58.78164439 63.54692766 58.05191231 66.86822128 C57.70307054 68.45731618 57.35500721 70.04658217 57.0077343 71.63602066 C56.52460162 73.84533079 56.03804531 76.0538589 55.55053711 78.26220703 C55.27455185 79.51840851 54.99856659 80.77460999 54.71421814 82.06887817 C54 85 54 85 53 87 C35.18 87 17.36 87 -1 87 C-1.07808759 57.95141756 -0.97981994 29.02716574 0 0 Z " fill="#212121" transform="translate(268,218)"/>
<path d="M0 0 C7.59 0 15.18 0 23 0 C29.74615385 10.11923077 29.74615385 10.11923077 32.359375 14.5859375 C32.91753906 15.53597656 33.47570312 16.48601562 34.05078125 17.46484375 C34.61152344 18.42519531 35.17226563 19.38554687 35.75 20.375 C36.8899009 22.32073689 38.03049471 24.26606806 39.171875 26.2109375 C39.6678418 27.05962402 40.16380859 27.90831055 40.67480469 28.78271484 C41.73279905 30.55292574 42.85605289 32.28407934 44 34 C47.53711441 29.08429346 50.48729836 24.14089662 53.05859375 18.65234375 C61.53097222 1.37637774 61.53097222 1.37637774 67.92529297 -1.16064453 C74.61122279 -2.2265174 81.44554126 -1.68331516 88 0 C89 1 89 1 89.12025452 3.36012268 C89.11803391 4.40603073 89.11581329 5.45193878 89.11352539 6.52954102 C89.11341209 8.30126427 89.11341209 8.30126427 89.11329651 10.10877991 C89.10813522 11.3941716 89.10297394 12.67956329 89.09765625 14.00390625 C89.0962413 15.31205795 89.09482635 16.62020966 89.09336853 17.96800232 C89.0895441 21.45162859 89.07971446 24.93521339 89.06866455 28.41882324 C89.05844882 31.97126708 89.05387056 35.52371759 89.04882812 39.07617188 C89.03809212 46.05080004 89.02049593 53.02539376 89 60 C82.73 60 76.46 60 70 60 C69.67 49.44 69.34 38.88 69 28 C66.999375 31.238125 64.99875 34.47625 62.9375 37.8125 C61.73217269 39.73983471 60.52652795 41.66697101 59.3203125 43.59375 C57.42811271 46.63557423 55.59444355 49.67178579 53.9296875 52.84375 C53.39601563 53.8234375 52.86234375 54.803125 52.3125 55.8125 C51.89613281 56.64394531 51.47976563 57.47539062 51.05078125 58.33203125 C48.01592781 60.80037871 45.46964444 61.06774378 41.60522461 60.89770508 C35.96968856 58.95581903 33.75756932 52.91781233 31.125 47.9375 C30.48820312 46.80376953 29.85140625 45.67003906 29.1953125 44.50195312 C28.00408737 42.37387906 26.82793149 40.23724452 25.67236328 38.08959961 C23.83573112 34.69652224 21.9142344 31.3499102 20 28 C19.67 38.56 19.34 49.12 19 60 C12.73 60 6.46 60 0 60 C0 40.2 0 20.4 0 0 Z " fill="#202020" transform="translate(298,129)"/>
<path d="M0 0 C7.1775 -0.061875 14.355 -0.12375 21.75 -0.1875 C23.99006836 -0.21481201 26.23013672 -0.24212402 28.53808594 -0.27026367 C55.27276493 -0.46077869 55.27276493 -0.46077869 64.8125 8.75 C66.99771498 12.89040733 67.39165134 17.12877693 66.4375 21.6875 C64.13274583 25.39514802 60.92542206 28.03728897 57 30 C57.54269531 30.31453125 58.08539062 30.6290625 58.64453125 30.953125 C66.32232784 35.54596909 66.32232784 35.54596909 68 39 C69.0229061 43.53001273 69.39281621 45.8651976 67.875 50.25 C64.14497624 55.72070152 59.35229911 58.3798405 53 60 C48.86941048 60.39051801 44.77088775 60.35063461 40.625 60.29296875 C39.59117187 60.28994751 38.55734375 60.28692627 37.4921875 60.28381348 C33.66135555 60.268217 29.83066686 60.22633361 26 60.1875 C17.42 60.125625 8.84 60.06375 0 60 C0 40.2 0 20.4 0 0 Z M18 17 C18 19.31 18 21.62 18 24 C22.06236402 24.08729047 26.12448589 24.14048992 30.1875 24.1875 C31.33798828 24.21263672 32.48847656 24.23777344 33.67382812 24.26367188 C34.78564453 24.27333984 35.89746094 24.28300781 37.04296875 24.29296875 C38.57473755 24.31653442 38.57473755 24.31653442 40.13745117 24.34057617 C43.47876246 23.9430385 45.36027316 23.0708907 48 21 C48 20.01 48 19.02 48 18 C45.18175808 16.59087904 42.82748718 16.88816447 39.6796875 16.90234375 C37.79443359 16.90717773 37.79443359 16.90717773 35.87109375 16.91210938 C34.55238281 16.92048828 33.23367188 16.92886719 31.875 16.9375 C30.53515789 16.94251511 29.195314 16.94707799 27.85546875 16.95117188 C24.57026794 16.96298914 21.28515603 16.97946383 18 17 Z M18 38 C18 39.98 18 41.96 18 44 C27.9 44 37.8 44 48 44 C48.66 42.68 49.32 41.36 50 40 C48.11771631 37.68347508 48.11771631 37.68347508 45.01904297 37.77294922 C43.14949951 37.78865967 43.14949951 37.78865967 41.2421875 37.8046875 C40.24761032 37.80893234 40.24761032 37.80893234 39.23294067 37.81326294 C37.11344417 37.82446565 34.99436896 37.84956949 32.875 37.875 C31.43880818 37.88502972 30.00260975 37.89415559 28.56640625 37.90234375 C25.04413372 37.924405 21.52210797 37.95893506 18 38 Z " fill="#202020" transform="translate(668,129)"/>
<path d="M0 0 C7.38389122 0.21595428 11.08037694 2.90429042 16.07470703 8.10522461 C17.06553039 9.19055629 18.0432667 10.28802369 19.00561523 11.39868164 C20.61603271 13.25562913 22.34327322 14.97202485 24.1003418 16.68969727 C24.88151367 17.48633789 24.88151367 17.48633789 25.6784668 18.29907227 C28.08141853 20.65536474 30.63169846 22.83044573 33.19799805 25.00610352 C36.00864559 27.52255243 38.63532243 30.19457839 41.2878418 32.87719727 C41.32542603 31.47642944 41.32542603 31.47642944 41.36376953 30.04736328 C41.45871107 26.59394538 41.55795437 23.14070767 41.66015625 19.6875 C41.70355993 18.19080457 41.74523093 16.69405788 41.78515625 15.19726562 C41.84272796 13.05005414 41.90645895 10.90310205 41.97143555 8.75610352 C42.00809326 7.46260986 42.04475098 6.16911621 42.08251953 4.83642578 C42.2878418 1.87719727 42.2878418 1.87719727 43.2878418 0.87719727 C48.8978418 0.87719727 54.5078418 0.87719727 60.2878418 0.87719727 C60.2878418 20.67719727 60.2878418 40.47719727 60.2878418 60.87719727 C44.2878418 60.87719727 44.2878418 60.87719727 39.2878418 56.87719727 C39.2878418 56.21719727 39.2878418 55.55719727 39.2878418 54.87719727 C38.45639648 54.53881836 38.45639648 54.53881836 37.6081543 54.19360352 C34.60278025 52.4885344 32.55797177 50.29919776 30.1628418 47.81469727 C27.04678414 44.41266243 27.04678414 44.41266243 23.2878418 41.87719727 C23.2878418 41.21719727 23.2878418 40.55719727 23.2878418 39.87719727 C22.74385742 39.66192383 22.19987305 39.44665039 21.6394043 39.22485352 C18.47855067 37.41340086 16.16020383 34.92223704 13.6628418 32.31469727 C10.32381278 28.6500571 10.32381278 28.6500571 6.2878418 25.87719727 C6.2878418 37.42719727 6.2878418 48.97719727 6.2878418 60.87719727 C0.3478418 60.87719727 -5.5921582 60.87719727 -11.7121582 60.87719727 C-11.73471343 53.20182749 -11.75307573 45.52646998 -11.76397038 37.85107517 C-11.76919816 34.28742305 -11.77629389 30.72379469 -11.78759766 27.16015625 C-11.80049996 23.0671363 -11.80538726 18.97414147 -11.80981445 14.88110352 C-11.81497574 13.59571182 -11.82013702 12.31032013 -11.82545471 10.98597717 C-11.82553024 9.80482834 -11.82560577 8.6236795 -11.82568359 7.40673828 C-11.82790421 6.36083023 -11.83012482 5.31492218 -11.83241272 4.23731995 C-11.549786 -1.30952982 -4.33781264 0.11398318 0 0 Z " fill="#212121" transform="translate(502.712158203125,128.122802734375)"/>
<path d="M0 0 C26.4 0 52.8 0 80 0 C76.31100672 14.75597311 59.83050756 24.03231573 48.26660156 32.35302734 C45.15313701 34.61535305 42.101046 36.95095761 39.0625 39.3125 C34.01529396 43.22456567 28.92320031 47.06983301 23.80078125 50.8828125 C20.41744857 53.44036663 17.11732344 56.09359472 13.83984375 58.78515625 C12 60 12 60 9 60 C7.71138579 52.42058666 6.43043871 44.83990615 5.15478516 37.25830078 C4.72002284 34.67987821 4.28351353 32.10174957 3.84521484 29.52392578 C3.21511433 25.81619144 2.59132711 22.10744157 1.96875 18.3984375 C1.77188599 17.24822113 1.57502197 16.09800476 1.37219238 14.91293335 C1.19200562 13.83226593 1.01181885 12.75159851 0.82617188 11.63818359 C0.66628784 10.69220306 0.50640381 9.74622253 0.3416748 8.77157593 C0 6 0 6 0 0 Z " fill="#202020" transform="translate(358,218)"/>
<path d="M0 0 C6.27 0 12.54 0 19 0 C27.07330977 15.15298142 34.80078893 30.46279246 42.42480469 45.84521484 C43.38027043 47.75881193 44.34667756 49.66706859 45.33300781 51.56494141 C48 56.70106727 48 56.70106727 48 60 C41.4 60 34.8 60 28 60 C24 52 24 52 24 50 C14.76 50.33 5.52 50.66 -4 51 C-5.32 53.97 -6.64 56.94 -8 60 C-14.93 60 -21.86 60 -29 60 C-26.82490914 54.56227285 -24.34988518 49.33774191 -21.8125 44.0625 C-21.29655273 42.98814697 -20.78060547 41.91379395 -20.24902344 40.80688477 C-13.65230059 27.12873012 -6.8246647 13.56541959 0 0 Z M9 21 C6.03 27.93 6.03 27.93 3 35 C7.29 35 11.58 35 16 35 C14.7023817 29.70139194 12.84984298 25.65474354 10 21 C9.67 21 9.34 21 9 21 Z " fill="#202020" transform="translate(429,129)"/>
<path d="M0 0 C6.27 0 12.54 0 19 0 C24.47639259 10.25859457 29.81221428 20.5153168 34.72851562 31.05273438 C37.51317062 37.01417938 40.41993015 42.90388921 43.43798828 48.75073242 C45.34817401 52.49963434 46.65046664 55.95139993 48 60 C41.4 60 34.8 60 28 60 C24 52 24 52 24 50 C19.43595198 49.90650926 14.87731881 49.91284953 10.3125 49.9375 C9.01892578 49.90978516 7.72535156 49.88207031 6.39257812 49.85351562 C2.7157392 49.90102 -0.45185457 50.02299098 -4 51 C-6.80738053 53.89739127 -7.5951372 56.12039104 -9 60 C-15.6 60 -22.2 60 -29 60 C-27.44643973 55.33931919 -25.72226684 51.20537426 -23.5 46.875 C-22.77975878 45.45322079 -22.05971604 44.03134104 -21.33984375 42.609375 C-20.95940918 41.86107422 -20.57897461 41.11277344 -20.18701172 40.34179688 C-18.12744311 36.27857555 -16.09688127 32.20087301 -14.0625 28.125 C-13.22278669 26.44524728 -12.38294247 24.76556001 -11.54296875 23.0859375 C-11.1257959 22.2515918 -10.70862305 21.41724609 -10.27880859 20.55761719 C-6.85253906 13.70507812 -3.42626953 6.85253906 0 0 Z M9 21 C6.03 27.93 6.03 27.93 3 35 C7.29 35 11.58 35 16 35 C14.7290827 31.1872481 13.66918099 28.09374991 11.875 24.625 C11.52179687 23.93664062 11.16859375 23.24828125 10.8046875 22.5390625 C10.53914062 22.03117187 10.27359375 21.52328125 10 21 C9.67 21 9.34 21 9 21 Z " fill="#202020" transform="translate(606,129)"/>
<path d="M0 0 C0.74886475 0.00523682 1.49772949 0.01047363 2.26928711 0.01586914 C3.07817383 0.0190918 3.88706055 0.02231445 4.72045898 0.02563477 C5.5705957 0.03401367 6.42073242 0.04239258 7.29663086 0.05102539 C8.15063477 0.05553711 9.00463867 0.06004883 9.88452148 0.06469727 C12.00108749 0.07652166 14.11761771 0.0944577 16.23413086 0.11352539 C22.71204693 12.13680406 28.90860185 24.30223297 35.04476929 36.50262451 C35.9219466 38.24508493 36.80120439 39.98649955 37.68252563 41.72686768 C38.93752002 44.20694408 40.18449787 46.69089259 41.42944336 49.17602539 C41.81336746 49.93156708 42.19729156 50.68710876 42.59284973 51.46554565 C45.23413086 56.77055279 45.23413086 56.77055279 45.23413086 60.11352539 C38.63413086 60.11352539 32.03413086 60.11352539 25.23413086 60.11352539 C22.23413086 54.11352539 22.23413086 54.11352539 22.23413086 52.11352539 C19.46795523 50.73043758 17.22395086 51.00142343 14.13256836 51.01586914 C12.92084961 51.0190918 11.70913086 51.02231445 10.46069336 51.02563477 C9.18967773 51.03401367 7.91866211 51.04239258 6.60913086 51.05102539 C4.69100586 51.05779297 4.69100586 51.05779297 2.73413086 51.06469727 C-0.43258206 51.07651336 -3.5992027 51.09298724 -6.76586914 51.11352539 C-8.08586914 54.08352539 -9.40586914 57.05352539 -10.76586914 60.11352539 C-17.36586914 60.11352539 -23.96586914 60.11352539 -30.76586914 60.11352539 C-29.99246703 56.24651482 -29.40707434 54.02513079 -27.7121582 50.66552734 C-27.28791565 49.81726883 -26.8636731 48.96901031 -26.42657471 48.095047 C-25.96619812 47.18977768 -25.50582153 46.28450836 -25.03149414 45.35180664 C-24.31893463 43.93305489 -24.31893463 43.93305489 -23.59197998 42.48564148 C-22.07222985 39.46290111 -20.54421137 36.44442907 -19.01586914 33.42602539 C-18.00229469 31.41393438 -16.98926795 29.40156737 -15.97680664 27.38891602 C-13.67518327 22.8156371 -11.36796227 18.24523036 -9.05603027 13.67715454 C-8.15158802 11.87997243 -7.25396936 10.07934767 -6.3614502 8.2762146 C-5.91192993 7.36812042 -5.46240967 6.46002625 -4.99926758 5.52441406 C-4.59432068 4.70196701 -4.18937378 3.87951996 -3.77215576 3.03215027 C-2.25797901 0.14516248 -2.25797901 0.14516248 0 0 Z M6.23413086 21.11352539 C3.26413086 28.04352539 3.26413086 28.04352539 0.23413086 35.11352539 C4.85413086 35.11352539 9.47413086 35.11352539 14.23413086 35.11352539 C11.92413086 30.49352539 9.61413086 25.87352539 7.23413086 21.11352539 C6.90413086 21.11352539 6.57413086 21.11352539 6.23413086 21.11352539 Z " fill="#202020" transform="translate(122.765869140625,128.886474609375)"/>
<path d="M0 0 C5.94 0 11.88 0 18 0 C18 14.19 18 28.38 18 43 C29.80263503 42.96039783 29.80263503 42.96039783 41.60522461 42.90991211 C43.07926359 42.90699291 44.55330337 42.90444436 46.02734375 42.90234375 C46.79953247 42.89722778 47.57172119 42.89211182 48.36730957 42.88684082 C50.24525187 42.88653026 52.12309253 42.93766431 54 43 C58.01386486 47.01386486 55 54.32353788 55 60 C36.52 60 18.04 60 -1 60 C-1.02094549 52.33162433 -1.04098358 44.66335169 -1.05175018 36.99497223 C-1.0570399 33.42428875 -1.06411339 29.85362885 -1.07543945 26.28295898 C-1.08834176 22.18993903 -1.09322906 18.0969442 -1.09765625 14.00390625 C-1.10281754 12.71851456 -1.10797882 11.43312286 -1.11329651 10.10877991 C-1.11337204 8.92763107 -1.11344757 7.74648224 -1.11352539 6.52954102 C-1.115746 5.48363297 -1.11796661 4.43772491 -1.12025452 3.36012268 C-1 1 -1 1 0 0 Z " fill="#202020" transform="translate(183,129)"/>
<path d="M0 0 C13.53 0 27.06 0 41 0 C41 3.96 41 7.92 41 12 C27.47 12 13.94 12 0 12 C0 8.04 0 4.08 0 0 Z " fill="#202020" transform="translate(595,114)"/>
<path d="M0 0 C1.87732315 -0.01925285 1.87732315 -0.01925285 3.79257202 -0.03889465 C5.16981615 -0.04706115 6.54706473 -0.05450506 7.92431641 -0.0612793 C8.61470631 -0.06535482 9.30509621 -0.06943035 10.01640701 -0.07362938 C13.67027744 -0.09450588 17.32411013 -0.10880084 20.97802734 -0.11816406 C24.75686925 -0.1292338 28.5351231 -0.1636346 32.31375694 -0.20333576 C35.21508903 -0.2294519 38.11627996 -0.23785135 41.01771927 -0.24144554 C42.41082355 -0.24632434 43.80392099 -0.25797515 45.19691086 -0.27648354 C47.14545329 -0.30076446 49.09428031 -0.29750109 51.04296875 -0.29296875 C52.15247894 -0.29883499 53.26198914 -0.30470123 54.40512085 -0.31074524 C57.15087891 0.17700195 57.15087891 0.17700195 59.03262329 2.20637512 C59.58615982 3.1818354 59.58615982 3.1818354 60.15087891 4.17700195 C59.45118484 3.85357819 58.75149078 3.53015442 58.03059387 3.19692993 C54.86830144 2.07691959 52.4235319 1.90044599 49.07543945 1.8581543 C47.27413826 1.82834976 47.27413826 1.82834976 45.43644714 1.79794312 C44.14982681 1.78639191 42.86320648 1.7748407 41.53759766 1.76293945 C40.19951702 1.74421597 38.86144804 1.72464168 37.52339172 1.70425415 C34.01360974 1.65305126 30.50378953 1.61336259 26.99383545 1.57611084 C23.40741613 1.53599656 19.82115421 1.48493821 16.23486328 1.43481445 C9.20698391 1.33819568 2.17900569 1.25374628 -4.84912109 1.17700195 C-4.90494858 1.79872787 -4.96077606 2.4204538 -5.01829529 3.0610199 C-5.09838333 3.8745845 -5.17847137 4.68814911 -5.26098633 5.52636719 C-5.37566505 6.73739357 -5.37566505 6.73739357 -5.49266052 7.97288513 C-5.94725019 10.78376748 -6.90989163 12.23777249 -8.91162109 14.23950195 C-9.45947266 14.80797852 -10.00732422 15.37645508 -10.57177734 15.9621582 C-10.99330078 16.36305664 -11.41482422 16.76395508 -11.84912109 17.17700195 C-12.17912109 16.51700195 -12.50912109 15.85700195 -12.84912109 15.17700195 C-11.96418835 12.75955323 -11.0254254 10.45774245 -9.97412109 8.11450195 C-9.69181641 7.46416992 -9.40951172 6.81383789 -9.11865234 6.14379883 C-6.58608022 0.37649597 -6.26515381 0.05566786 0 0 Z " fill="#CBB058" transform="translate(42.84912109375,217.822998046875)"/>
<path d="M0 0 C3.875 1.875 3.875 1.875 5 3 C5.08783542 5.21855264 5.10694609 7.43988496 5.09765625 9.66015625 C5.0962413 10.32462265 5.09482635 10.98908905 5.09336853 11.6736908 C5.08775518 13.80333899 5.07520054 15.93288339 5.0625 18.0625 C5.05748671 19.50325369 5.05292351 20.94400903 5.04882812 22.38476562 C5.03778145 25.92321102 5.02050792 29.46159539 5 33 C4.34 32.67 3.68 32.34 3 32 C2.98018066 31.17274414 2.96036133 30.34548828 2.93994141 29.49316406 C2.84468788 25.74512194 2.73500891 21.99763683 2.625 18.25 C2.5940625 16.94804687 2.563125 15.64609375 2.53125 14.3046875 C2.49257812 13.05429687 2.45390625 11.80390625 2.4140625 10.515625 C2.3826416 9.36352539 2.3512207 8.21142578 2.31884766 7.02441406 C2.01598825 4.15165578 1.4911762 2.43820389 0 0 Z " fill="#CBAF4E" transform="translate(168,272)"/>
<path d="M0 0 C0.391875 0.474375 0.78375 0.94875 1.1875 1.4375 C5.81566897 5.42730084 13.3879747 4.05741032 19.14257812 3.9609375 C24.19783106 3.90974507 28.99540015 4.2695681 34 5 C34 5.33 34 5.66 34 6 C22.78 6 11.56 6 0 6 C0 4.02 0 2.04 0 0 Z " fill="#181818" transform="translate(182,183)"/>
<path d="M0 0 C0.66 0 1.32 0 2 0 C2 2.64 2 5.28 2 8 C14.87 7.67 27.74 7.34 41 7 C40.67 7.66 40.34 8.32 40 9 C26.47 9 12.94 9 -1 9 C-0.67 6.03 -0.34 3.06 0 0 Z " fill="#D7B039" transform="translate(585,92)"/>
<path d="M0 0 C2.0622048 -0.054348 4.12482816 -0.09294961 6.1875 -0.125 C7.33605469 -0.14820313 8.48460937 -0.17140625 9.66796875 -0.1953125 C12.91740372 -0.00484152 15.08660521 0.60639873 18 2 C18 2.33 18 2.66 18 3 C10.41 3 2.82 3 -5 3 C-5 2.67 -5 2.34 -5 2 C-3.35 2 -1.7 2 0 2 C0 1.34 0 0.68 0 0 Z " fill="#0D0D0D" transform="translate(691,143)"/>
<path d="M0 0 C0.99 0.33 1.98 0.66 3 1 C3 1.66 3 2.32 3 3 C4.49853516 3.07347656 4.49853516 3.07347656 6.02734375 3.1484375 C7.96287109 3.26058594 7.96287109 3.26058594 9.9375 3.375 C11.86916016 3.47941406 11.86916016 3.47941406 13.83984375 3.5859375 C15.40412109 3.79089844 15.40412109 3.79089844 17 4 C17.33 4.66 17.66 5.32 18 6 C11.4 6 4.8 6 -2 6 C-1.34 4.02 -0.68 2.04 0 0 Z " fill="#191919" transform="translate(579,183)"/>
<path d="M0 0 C0.33 0 0.66 0 1 0 C0.4533512 8.18088206 -1.17123868 16.01785939 -3 24 C-4.96957626 20.41552213 -5.01957061 18.98559419 -4 15 C-3.47521304 11.61803959 -3 8.4232706 -3 5 C-2.34 5 -1.68 5 -1 5 C-0.67 3.35 -0.34 1.7 0 0 Z " fill="#161616" transform="translate(526,248)"/>
<path d="M0 0 C0.99 0.66 1.98 1.32 3 2 C2.814375 2.928125 2.62875 3.85625 2.4375 4.8125 C1.75876119 8.01343771 1.75876119 8.01343771 3 11 C2.34 11 1.68 11 1 11 C1 12.32 1 13.64 1 15 C0.34 15 -0.32 15 -1 15 C-1.33 15.66 -1.66 16.32 -2 17 C-3.44715727 13.12813552 -2.5441918 10.1767672 -1.5625 6.25 C-1.27503906 5.07953125 -0.98757813 3.9090625 -0.69140625 2.703125 C-0.46324219 1.81109375 -0.23507812 0.9190625 0 0 Z " fill="#1A1A1A" transform="translate(451,238)"/>
<path d="M0 0 C0.33 0 0.66 0 1 0 C0.67 2.97 0.34 5.94 0 9 C0.66 9 1.32 9 2 9 C2 9.66 2 10.32 2 11 C-1.3 11 -4.6 11 -8 11 C-6.74874616 7.24623848 -5.4347596 6.75926711 -2 5 C-1.34 5 -0.68 5 0 5 C0 3.35 0 1.7 0 0 Z " fill="#CEAF49" transform="translate(723,90)"/>
<path d="M0 0 C1.32 0 2.64 0 4 0 C3.41509121 6.14154225 2.45933748 12.00679849 1 18 C0.01 17.01 -0.98 16.02 -2 15 C-0.68 10.38 0.64 5.76 2 1 C1.34 0.67 0.68 0.34 0 0 Z " fill="#181818" transform="translate(530,218)"/>
<path d="M0 0 C0.33 0 0.66 0 1 0 C1 3.63 1 7.26 1 11 C0.34 11 -0.32 11 -1 11 C-0.690625 12.423125 -0.690625 12.423125 -0.375 13.875 C-0.25125 14.90625 -0.1275 15.9375 0 17 C-0.66 17.66 -1.32 18.32 -2 19 C-2.71927295 21.31765729 -3.3909893 23.65095874 -4 26 C-5.14806133 22.58024284 -4.83383098 20.27851047 -4.00390625 16.796875 C-3.77509766 15.8171875 -3.54628906 14.8375 -3.31054688 13.828125 C-2.94026367 12.30445312 -2.94026367 12.30445312 -2.5625 10.75 C-2.31951172 9.71875 -2.07652344 8.6875 -1.82617188 7.625 C-1.22557219 5.08128367 -0.61658359 2.53988059 0 0 Z " fill="#C9AF48" transform="translate(730,59)"/>
<path d="M0 0 C0.99 0 1.98 0 3 0 C2.67 0.99 2.34 1.98 2 3 C-8.56 3 -19.12 3 -30 3 C-30 2.67 -30 2.34 -30 2 C-29.12674072 1.97494385 -28.25348145 1.9498877 -27.35375977 1.92407227 C-24.12397448 1.82912291 -20.89435846 1.72987971 -17.66479492 1.62768555 C-16.26510801 1.58428566 -14.86536641 1.54261436 -13.46557617 1.50268555 C-11.45738505 1.44510555 -9.44938851 1.38086 -7.44140625 1.31640625 C-6.23170166 1.27974854 -5.02199707 1.24309082 -3.77563477 1.20532227 C-1.09294544 1.31061734 -1.09294544 1.31061734 0 0 Z " fill="#D2B23E" transform="translate(798,98)"/>
<path d="M0 0 C1 2 1 2 0.375 5.25 C-1.19155658 9.52242703 -2.94013419 11.69856584 -6 15 C-7 13 -7 13 -6.07421875 10.21484375 C-5.61660156 9.13332031 -5.15898437 8.05179688 -4.6875 6.9375 C-4.23761719 5.85339844 -3.78773437 4.76929688 -3.32421875 3.65234375 C-2 1 -2 1 0 0 Z " fill="#CAB041" transform="translate(37,220)"/>
<path d="M0 0 C0.33 0 0.66 0 1 0 C1 2.31 1 4.62 1 7 C1.66 7.33 2.32 7.66 3 8 C2.236875 8.226875 1.47375 8.45375 0.6875 8.6875 C-2.54736301 10.26731682 -3.41641358 11.83282717 -5 15 C-5.33 14.34 -5.66 13.68 -6 13 C-5.10333658 10.75689987 -4.10853317 8.55245679 -3.0625 6.375 C-2.49660156 5.18648437 -1.93070312 3.99796875 -1.34765625 2.7734375 C-0.90292969 1.85820312 -0.45820312 0.94296875 0 0 Z " fill="#D0AD45" transform="translate(124,13)"/>
<path d="M0 0 C0.99 0.66 1.98 1.32 3 2 C1.02 5.96 -0.96 9.92 -3 14 C-3.66 13.67 -4.32 13.34 -5 13 C-4.31740614 5.76450512 -4.31740614 5.76450512 -1 3 C-0.67 2.01 -0.34 1.02 0 0 Z " fill="#1A1A1A" transform="translate(613,148)"/>
<path d="M0 0 C0.99 0.33 1.98 0.66 3 1 C3 2.32 3 3.64 3 5 C2.01 5 1.02 5 0 5 C0.33 6.32 0.66 7.64 1 9 C-1.04119788 7.38405168 -3.04072937 5.7143618 -5 4 C-5 3.34 -5 2.68 -5 2 C-4.360625 1.855625 -3.72125 1.71125 -3.0625 1.5625 C-1.02454854 1.18992819 -1.02454854 1.18992819 0 0 Z " fill="#CFB03D" transform="translate(165,261)"/>
<path d="M0 0 C0.99 0 1.98 0 3 0 C4.48684211 8.77236842 4.48684211 8.77236842 2 13 C1.01 13.66 0.02 14.32 -1 15 C-1 12 -1 12 0.0625 9.1875 C1.10030703 5.65895611 0.84226055 3.53749432 0 0 Z " fill="#191919" transform="translate(731,140)"/>
<path d="M0 0 C4.95 0 9.9 0 15 0 C14.67 0.99 14.34 1.98 14 3 C13.34 2.67 12.68 2.34 12 2 C11.67 2.66 11.34 3.32 11 4 C10.34 3.67 9.68 3.34 9 3 C7.62657169 2.9310528 6.24997898 2.91532292 4.875 2.9375 C2.956875 2.9684375 2.956875 2.9684375 1 3 C0.67 2.01 0.34 1.02 0 0 Z " fill="#181818" transform="translate(688,153)"/>
<path d="M0 0 C0.66 0.33 1.32 0.66 2 1 C1.42618522 4.32812571 0.40619252 5.69842455 -2 8 C-2 8.66 -2 9.32 -2 10 C-3.53125 11.2890625 -3.53125 11.2890625 -5.5 12.625 C-6.1496875 13.07101563 -6.799375 13.51703125 -7.46875 13.9765625 C-7.9740625 14.31429687 -8.479375 14.65203125 -9 15 C-7.38325319 11.57053707 -5.42402323 8.43736948 -3.375 5.25 C-2.74335938 4.26515625 -2.11171875 3.2803125 -1.4609375 2.265625 C-0.97882813 1.51796875 -0.49671875 0.7703125 0 0 Z " fill="#161616" transform="translate(469,43)"/>
<path d="M0 0 C1.32 0.66 2.64 1.32 4 2 C3.01 5.3 2.02 8.6 1 12 C0.67 12 0.34 12 0 12 C-1.39130435 2.7826087 -1.39130435 2.7826087 0 0 Z " fill="#CEAE3D" transform="translate(90,281)"/>
<path d="M0 0 C2.4375 0.8125 2.4375 0.8125 5 2 C5.33 2.99 5.66 3.98 6 5 C6.66 5 7.32 5 8 5 C8.33 5.99 8.66 6.98 9 8 C8.01 9.485 8.01 9.485 7 11 C5.82750647 9.54634731 4.66216184 8.08692581 3.5 6.625 C2.52546875 5.40683594 2.52546875 5.40683594 1.53125 4.1640625 C0 2 0 2 0 0 Z " fill="#CDAE43" transform="translate(575,12)"/>
<path d="M0 0 C0.33 0 0.66 0 1 0 C1.99 5.61 2.98 11.22 4 17 C3.34 17.33 2.68 17.66 2 18 C1.63762737 16.37681021 1.28534843 14.7513642 0.9375 13.125 C0.74027344 12.22007813 0.54304688 11.31515625 0.33984375 10.3828125 C0 8 0 8 1 6 C0.34 6 -0.32 6 -1 6 C-0.67 4.02 -0.34 2.04 0 0 Z " fill="#151515" transform="translate(388,0)"/>
<path d="M0 0 C1.37734745 3.82596514 0.7995385 7.07499282 0 11 C-0.66 11.66 -1.32 12.32 -2 13 C-2.99 13 -3.98 13 -5 13 C-4.54554036 11.58208592 -4.08625056 10.16571954 -3.625 8.75 C-3.24214844 7.56664062 -3.24214844 7.56664062 -2.8515625 6.359375 C-2.04826333 4.13372042 -1.10288338 2.09068328 0 0 Z " fill="#CDB13F" transform="translate(16,266)"/>
<path d="M0 0 C0.66 0 1.32 0 2 0 C2.50435694 1.9363704 3.00333874 3.87414146 3.5 5.8125 C3.7784375 6.89144531 4.056875 7.97039062 4.34375 9.08203125 C5 12 5 12 5 15 C4.01 14.67 3.02 14.34 2 14 C1.93941406 13.40832031 1.87882812 12.81664063 1.81640625 12.20703125 C1.37987629 8.09021792 0.91328654 4.04455467 0 0 Z " fill="#161616" transform="translate(404,86)"/>
<path d="M0 0 C1.93242285 3.34520258 2.5463853 6.44767482 3.125 10.25 C3.29257812 11.32765625 3.46015625 12.4053125 3.6328125 13.515625 C3.75398438 14.33546875 3.87515625 15.1553125 4 16 C3.34 16 2.68 16 2 16 C1.87882812 15.33613281 1.75765625 14.67226563 1.6328125 13.98828125 C0.77452292 9.46575541 -0.03971311 5.20061476 -2 1 C-1.34 0.67 -0.68 0.34 0 0 Z " fill="#161616" transform="translate(396,40)"/>
<path d="M0 0 C4.51290803 3.33562767 6.68206814 5.33289301 8 11 C6 9.6875 6 9.6875 4 8 C4 7.01 4 6.02 4 5 C2.35 5 0.7 5 -1 5 C-0.67 3.35 -0.34 1.7 0 0 Z M3 9 C5 10 5 10 5 10 Z " fill="#CDAD48" transform="translate(809,2)"/>
<path d="M0 0 C0.66 0 1.32 0 2 0 C1.88541307 1.43836751 1.75790884 2.87570966 1.625 4.3125 C1.55539062 5.11300781 1.48578125 5.91351563 1.4140625 6.73828125 C1 9 1 9 -1 12 C-2.14637376 7.54187984 -2.07795422 4.15590845 0 0 Z M-4 11 C-2 12 -2 12 -2 12 Z " fill="#181818" transform="translate(517,286)"/>
<path d="M0 0 C0.66 0 1.32 0 2 0 C2 2.64 2 5.28 2 8 C3.65 8 5.3 8 7 8 C7 8.33 7 8.66 7 9 C4.36 9 1.72 9 -1 9 C-0.67 6.03 -0.34 3.06 0 0 Z " fill="#C9AF48" transform="translate(585,92)"/>
<path d="M0 0 C0.66 0.33 1.32 0.66 2 1 C1.34 4.63 0.68 8.26 0 12 C-0.99 12.33 -1.98 12.66 -3 13 C-2.88490339 11.58249437 -2.75746342 10.16598831 -2.625 8.75 C-2.55539062 7.96109375 -2.48578125 7.1721875 -2.4140625 6.359375 C-1.98492887 3.914123 -1.21399362 2.15163097 0 0 Z " fill="#161616" transform="translate(571,41)"/>
<path d="M0 0 C0.33 0.66 0.66 1.32 1 2 C2.093125 1.814375 3.18625 1.62875 4.3125 1.4375 C8 1 8 1 11 2 C11 2.66 11 3.32 11 4 C7.37 4 3.74 4 0 4 C0 2.68 0 1.36 0 0 Z " fill="#171717" transform="translate(668,185)"/>
<path d="M0 0 C0.99 0.33 1.98 0.66 3 1 C1.20578369 5.0369867 -0.20551875 7.64480474 -4 10 C-4.33 9.34 -4.66 8.68 -5 8 C-4.00390625 6.0546875 -4.00390625 6.0546875 -2.5625 3.875 C-2.08941406 3.15054687 -1.61632812 2.42609375 -1.12890625 1.6796875 C-0.75636719 1.12539063 -0.38382812 0.57109375 0 0 Z " fill="#181818" transform="translate(485,20)"/>
<path d="M0 0 C2.53910197 0.38520564 3.72751123 0.70097943 5.484375 2.62890625 C5.90203125 3.26699219 6.3196875 3.90507812 6.75 4.5625 C7.17796875 5.20316406 7.6059375 5.84382813 8.046875 6.50390625 C8.36140625 6.99761719 8.6759375 7.49132812 9 8 C8.34 8.66 7.68 9.32 7 10 C7 9.34 7 8.68 7 8 C6.360625 7.7525 5.72125 7.505 5.0625 7.25 C3 6 3 6 2.375 4 C2.25125 3.34 2.1275 2.68 2 2 C1.34 1.34 0.68 0.68 0 0 Z " fill="#151515" transform="translate(553,20)"/>
<path d="M0 0 C0.66 0 1.32 0 2 0 C1.46274105 3.37705625 0.88935377 6.696686 0 10 C-0.66 10 -1.32 10 -2 10 C-1.85950482 8.52031676 -1.71245174 7.04125484 -1.5625 5.5625 C-1.48128906 4.73878906 -1.40007812 3.91507812 -1.31640625 3.06640625 C-1 1 -1 1 0 0 Z " fill="#1A1A1A" transform="translate(293,73)"/>
<path d="M0 0 C1.21386936 3.64160808 0.6674695 4.33165469 -0.9375 7.6875 C-1.31777344 8.49574219 -1.69804688 9.30398437 -2.08984375 10.13671875 C-2.39019531 10.75160156 -2.69054687 11.36648437 -3 12 C-4.32554118 8.02337646 -3.34765994 5.90112089 -2 2 C-1.34 1.34 -0.68 0.68 0 0 Z " fill="#C9AC38" transform="translate(112,238)"/>
<path d="M0 0 C0.66 0.33 1.32 0.66 2 1 C0.52307692 7.64615385 0.52307692 7.64615385 -2.125 9.4375 C-2.74375 9.623125 -3.3625 9.80875 -4 10 C-2.8905928 6.51329166 -1.73662334 3.22515763 0 0 Z " fill="#191919" transform="translate(596,149)"/>
<path d="M0 0 C0.66 0 1.32 0 2 0 C1.34 3.3 0.68 6.6 0 10 C-0.66 9.67 -1.32 9.34 -2 9 C-1.125 1.125 -1.125 1.125 0 0 Z " fill="#161616" transform="translate(338,218)"/>
<path d="M0 0 C1.32 0 2.64 0 4 0 C3 3 2 6 1 9 C0.67 9 0.34 9 0 9 C0 6.03 0 3.06 0 0 Z " fill="#1A1A1A" transform="translate(668,129)"/>
<path d="M0 0 C3 1 3 1 4 3 C0.375 6 0.375 6 -3 6 C-2 4 -1 2 0 0 Z " fill="#1A1A1A" transform="translate(447,75)"/>
<path d="M0 0 C1.27351308 2.54702616 0.80191925 3.4282945 0.0625 6.125 C-0.13214844 6.84945312 -0.32679688 7.57390625 -0.52734375 8.3203125 C-0.68332031 8.87460938 -0.83929687 9.42890625 -1 10 C-1.99 9.67 -2.98 9.34 -4 9 C-4 8.01 -4 7.02 -4 6 C-3.34 6 -2.68 6 -2 6 C-1.855625 5.195625 -1.71125 4.39125 -1.5625 3.5625 C-1 1 -1 1 0 0 Z " fill="#161616" transform="translate(568,60)"/>
<path d="M0 0 C0.66 0.66 1.32 1.32 2 2 C1.67 2.66 1.34 3.32 1 4 C0.34 4 -0.32 4 -1 4 C-1.103125 4.639375 -1.20625 5.27875 -1.3125 5.9375 C-1.539375 6.618125 -1.76625 7.29875 -2 8 C-2.99 8.33 -3.98 8.66 -5 9 C-3.7508258 5.54074837 -2.32472205 2.85306797 0 0 Z " fill="#151515" transform="translate(497,3)"/>
<path d="M0 0 C0.66 0.33 1.32 0.66 2 1 C1.34 3.97 0.68 6.94 0 10 C-0.33 9.34 -0.66 8.68 -1 8 C-1.66 7.67 -2.32 7.34 -3 7 C-2.67 5.35 -2.34 3.7 -2 2 C-1.34 2 -0.68 2 0 2 C0 1.34 0 0.68 0 0 Z " fill="#171717" transform="translate(326,275)"/>
<path d="M0 0 C2.88437779 1.29299694 4.87219421 2.65941363 7 5 C6.01 5.33 5.02 5.66 4 6 C1.8125 4.75 1.8125 4.75 0 3 C0 2.01 0 1.02 0 0 Z " fill="#1A1A1A" transform="translate(509,130)"/>
<path d="M0 0 C0.33 0 0.66 0 1 0 C1.08086147 1.79093191 1.13912702 3.58289628 1.1875 5.375 C1.22230469 6.37273437 1.25710938 7.37046875 1.29296875 8.3984375 C1.19628906 9.25695312 1.09960938 10.11546875 1 11 C0.01 11.66 -0.98 12.32 -2 13 C-1.34 8.71 -0.68 4.42 0 0 Z " fill="#CAB045" transform="translate(588,78)"/>
<path d="M0 0 C0.33 0 0.66 0 1 0 C1.3227506 4.62609198 0.84450614 7.28026121 -2 11 C-2.66 11 -3.32 11 -4 11 C-3.52269162 9.5410574 -3.04308958 8.08286504 -2.5625 6.625 C-2.29566406 5.81289062 -2.02882813 5.00078125 -1.75390625 4.1640625 C-1 2 -1 2 0 0 Z " fill="#CDAD47" transform="translate(102,64)"/>
<path d="M0 0 C2.31 0.33 4.62 0.66 7 1 C5.35 2.65 3.7 4.3 2 6 C1.34 4.02 0.68 2.04 0 0 Z " fill="#1B1C1A" transform="translate(270,0)"/>
<path d="M0 0 C0.8971875 0.5259375 0.8971875 0.5259375 1.8125 1.0625 C-1.32248292 2.92026765 -3.56221432 3.26390476 -7.1875 3.0625 C-6.5275 2.7325 -5.8675 2.4025 -5.1875 2.0625 C-5.1875 1.4025 -5.1875 0.7425 -5.1875 0.0625 C-2.1875 -0.9375 -2.1875 -0.9375 0 0 Z " fill="#D2B240" transform="translate(741.1875,301.9375)"/>
<path d="M0 0 C0.74955438 2.9982175 1.41070989 5.96936513 2 9 C0.35 9 -1.3 9 -3 9 C-2.01 6.03 -1.02 3.06 0 0 Z " fill="#CEAE40" transform="translate(29,235)"/>
<path d="M0 0 C2.4375 0.625 2.4375 0.625 5 2 C5.8125 5.125 5.8125 5.125 6 8 C1.125 3.375 1.125 3.375 0 0 Z " fill="#CCAF48" transform="translate(586,27)"/>
<path d="M0 0 C1.65 0 3.3 0 5 0 C5.59732819 2.76264289 6 5.16032769 6 8 C4.02 5.36 2.04 2.72 0 0 Z " fill="#CEAE4B" transform="translate(565,0)"/>
<path d="M0 0 C1.10844919 3.32534757 0.84454356 5.62182575 0 9 C-0.99 9 -1.98 9 -3 9 C-2.69181644 7.68647977 -2.37832335 6.37420428 -2.0625 5.0625 C-1.88847656 4.33160156 -1.71445312 3.60070312 -1.53515625 2.84765625 C-1 1 -1 1 0 0 Z " fill="#141414" transform="translate(335,235)"/>
<path d="M0 0 C0.66 0.66 1.32 1.32 2 2 C1.34 2 0.68 2 0 2 C0 1.34 0 0.68 0 0 Z M-3 3 C-2.34 3 -1.68 3 -1 3 C-0.34 4.65 0.32 6.3 1 8 C-0.32 7.67 -1.64 7.34 -3 7 C-3 5.68 -3 4.36 -3 3 Z " fill="#CEAC3B" transform="translate(140,232)"/>
<path d="M0 0 C0.66 0.33 1.32 0.66 2 1 C1.01 2.98 0.02 4.96 -1 7 C-1.99 7 -2.98 7 -4 7 C-2.68 4.69 -1.36 2.38 0 0 Z " fill="#121212" transform="translate(735,175)"/>
<path d="M0 0 C0.99 0.33 1.98 0.66 3 1 C1.7260411 3.03833424 0.38938077 5.03852126 -1 7 C-1.66 7 -2.32 7 -3 7 C-1.125 1.125 -1.125 1.125 0 0 Z " fill="#191919" transform="translate(421,146)"/>
<path d="M0 0 C0.66 0.99 1.32 1.98 2 3 C1.34 3 0.68 3 0 3 C-0.33 4.98 -0.66 6.96 -1 9 C-1.99 9.33 -2.98 9.66 -4 10 C-2.8905928 6.51329166 -1.73662334 3.22515763 0 0 Z " fill="#191919" transform="translate(606,129)"/>
<path d="M0 0 C1.32 0.33 2.64 0.66 4 1 C4 1.66 4 2.32 4 3 C3.34 3 2.68 3 2 3 C1.67 4.65 1.34 6.3 1 8 C0.67 8 0.34 8 0 8 C0 5.36 0 2.72 0 0 Z " fill="#1A1A19" transform="translate(595,114)"/>
<path d="M0 0 C1.98 0.495 1.98 0.495 4 1 C3.67 3.31 3.34 5.62 3 8 C1.49440461 6.03617993 0.10868317 4.21736634 -1 2 C-0.67 1.34 -0.34 0.68 0 0 Z " fill="#D3A745" transform="translate(667,61)"/>
<path d="M0 0 C0.99 0 1.98 0 3 0 C2.67 2.64 2.34 5.28 2 8 C1.87625 7.360625 1.7525 6.72125 1.625 6.0625 C1.315625 5.0415625 1.315625 5.0415625 1 4 C0.34 3.67 -0.32 3.34 -1 3 C-0.67 2.01 -0.34 1.02 0 0 Z " fill="#CAAC40" transform="translate(764,252)"/>
<path d="M0 0 C0.99 0.33 1.98 0.66 3 1 C3 1.99 3 2.98 3 4 C0.69 4 -1.62 4 -4 4 C-2.66666667 2.66666667 -1.33333333 1.33333333 0 0 Z " fill="#181818" transform="translate(165,185)"/>
<path d="M0 0 C0.66 0 1.32 0 2 0 C1.49396008 2.16874252 1.00016187 3.99967627 0 6 C-0.99 6 -1.98 6 -3 6 C-1.125 1.125 -1.125 1.125 0 0 Z " fill="#1A1A1A" transform="translate(452,68)"/>
<path d="" fill="#000000" transform="translate(0,0)"/>
<path d="" fill="#000000" transform="translate(0,0)"/>
<path d="" fill="#000000" transform="translate(0,0)"/>
<path d="" fill="#000000" transform="translate(0,0)"/>
<path d="" fill="#000000" transform="translate(0,0)"/>
<path d="" fill="#000000" transform="translate(0,0)"/>
<path d="" fill="#000000" transform="translate(0,0)"/>
<path d="" fill="#000000" transform="translate(0,0)"/>
<path d="" fill="#FFFF00" transform="translate(0,0)"/>
</svg>
